<?xml version="1.0" encoding="UTF-8"?>
<svg width="28px" height="20px" viewBox="0 0 28 20" version="1.1" xmlns="http://www.w3.org/2000/svg" xmlns:xlink="http://www.w3.org/1999/xlink">
    <!-- Generator: Sketch 44.1 (41455) - http://www.bohemiancoding.com/sketch -->
    <title>DZ</title>
    <desc>Created with Sketch.</desc>
    <defs>
        <rect id="path-1" x="0" y="0" width="28" height="20" rx="2"></rect>
    </defs>
    <g id="Page-1" stroke="none" stroke-width="1" fill="none" fill-rule="evenodd">
        <g id="Flags" transform="translate(-220.000000, -172.000000)">
            <g id="DZ" transform="translate(220.000000, 172.000000)">
                <mask id="mask-2" fill="white">
                    <use xlink:href="#path-1"></use>
                </mask>
                <g id="Mask">
                    <use fill="#FFFFFF" fill-rule="evenodd" xlink:href="#path-1"></use>
                    <rect stroke="#F5F5F5" stroke-width="0.5" x="0.25" y="0.25" width="27.5" height="19.5" rx="2"></rect>
                </g>
                <rect id="Rectangle-2" fill="#048345" mask="url(#mask-2)" x="0" y="0" width="14.6666667" height="20"></rect>
                <polygon id="Star-8" fill="#E81B42" mask="url(#mask-2)" points="17.3333333 11.04 15.765906 12.1573787 16.3442345 10.3213777 14.7971826 9.17595468 16.7220366 9.15862229 17.3333333 7.33333333 17.94463 9.15862229 19.869484 9.17595468 18.3224321 10.3213777 18.9007607 12.1573787"></polygon>
                <path d="M17.6800003,5.61866715 C16.6519042,4.61467411 15.2702044,4 13.7509001,4 C10.5747657,4 8,6.6862915 8,10 C8,13.3137085 10.5747657,16 13.7509001,16 C15.2702044,16 16.6519042,15.3853259 17.6800003,14.3813329 C16.9708741,14.7188753 16.1687578,14.9090909 15.3193274,14.9090909 C12.4319325,14.9090909 10.0912364,12.711216 10.0912364,10 C10.0912364,7.28878396 12.4319325,5.09090909 15.3193274,5.09090909 C16.1687578,5.09090909 16.9708741,5.28112473 17.6800003,5.61866715 Z" id="Oval-3" fill="#E81B42" mask="url(#mask-2)"></path>
            </g>
        </g>
    </g>
</svg>