<?xml version="1.0" encoding="UTF-8"?>
<svg width="28px" height="20px" viewBox="0 0 28 20" version="1.1" xmlns="http://www.w3.org/2000/svg" xmlns:xlink="http://www.w3.org/1999/xlink">
    <!-- Generator: Sketch 44.1 (41455) - http://www.bohemiancoding.com/sketch -->
    <title>GG</title>
    <desc>Created with Sketch.</desc>
    <defs>
        <rect id="path-1" x="0" y="0" width="28" height="20" rx="2"></rect>
    </defs>
    <g id="Page-1" stroke="none" stroke-width="1" fill="none" fill-rule="evenodd">
        <g id="Flags" transform="translate(-604.000000, -316.000000)">
            <g id="GG" transform="translate(604.000000, 316.000000)">
                <mask id="mask-2" fill="white">
                    <use xlink:href="#path-1"></use>
                </mask>
                <g id="Mask">
                    <use fill="#FFFFFF" fill-rule="evenodd" xlink:href="#path-1"></use>
                    <rect stroke="#F5F5F5" stroke-width="0.5" x="0.25" y="0.25" width="27.5" height="19.5" rx="2"></rect>
                </g>
                <rect id="Mask" fill="#E8112D" mask="url(#mask-2)" x="10.6666667" y="0" width="6.66666667" height="20"></rect>
                <rect id="Mask" fill="#E8112D" mask="url(#mask-2)" x="0" y="6.66666667" width="28" height="6.66666667"></rect>
                <g id="Group" mask="url(#mask-2)" fill="#F9DD16">
                    <g transform="translate(6.666667, 2.666667)">
                        <rect id="Rectangle-1229" x="6.66666667" y="0" width="1.33333333" height="14.6666667"></rect>
                        <polygon id="Triangle-1" points="7.33333333 13.3333333 8.66666667 14.6666667 6 14.6666667"></polygon>
                        <rect id="Rectangle-1229" x="0" y="6.66666667" width="14.6666667" height="1.33333333"></rect>
                        <polygon id="Triangle-1" transform="translate(7.333333, 0.666667) scale(1, -1) translate(-7.333333, -0.666667) " points="7.33333333 0 8.66666667 1.33333333 6 1.33333333"></polygon>
                        <polygon id="Triangle-1" transform="translate(0.666667, 7.333333) scale(1, -1) rotate(-270.000000) translate(-0.666667, -7.333333) " points="0.666666667 6.66666667 2 8 -0.666666667 8"></polygon>
                        <polygon id="Triangle-1" transform="translate(14.000000, 7.333333) scale(-1, -1) rotate(-270.000000) translate(-14.000000, -7.333333) " points="14 6.66666667 15.3333333 8 12.6666667 8"></polygon>
                    </g>
                </g>
            </g>
        </g>
    </g>
</svg>