<?xml version="1.0" encoding="UTF-8"?>
<svg width="28px" height="20px" viewBox="0 0 28 20" version="1.1" xmlns="http://www.w3.org/2000/svg" xmlns:xlink="http://www.w3.org/1999/xlink">
    <!-- Generator: Sketch 44.1 (41455) - http://www.bohemiancoding.com/sketch -->
    <title>GY</title>
    <desc>Created with Sketch.</desc>
    <defs>
        <rect id="path-1" x="0" y="0" width="28" height="20" rx="2"></rect>
        <polygon id="path-3" points="-1.33333333 20 -1.33333333 0 -3.77475828e-14 0 28 9.33333333 28 10.6666667 -3.77475828e-14 20"></polygon>
        <polygon id="path-4" points="-1.33333333 20 -1.33333333 0 -3.75255382e-14 0 15.3333333 10 -3.75255382e-14 20"></polygon>
    </defs>
    <g id="Page-1" stroke="none" stroke-width="1" fill="none" fill-rule="evenodd">
        <g id="Flags" transform="translate(-556.000000, -316.000000)">
            <g id="GY" transform="translate(556.000000, 316.000000)">
                <mask id="mask-2" fill="white">
                    <use xlink:href="#path-1"></use>
                </mask>
                <use id="Mask" fill="#FFFFFF" xlink:href="#path-1"></use>
                <rect id="Mask" fill="#08C55F" mask="url(#mask-2)" x="0" y="0" width="28" height="20"></rect>
                <g id="Rectangle-1134" mask="url(#mask-2)">
                    <use fill="#FFD831" fill-rule="evenodd" xlink:href="#path-3"></use>
                    <path stroke="#FFFFFF" stroke-width="1.33333333" d="M-0.666666667,19.3333333 L-0.108185107,19.3333333 L27.3333333,10.1861605 L27.3333333,9.81383948 L-0.108185107,0.666666667 L-0.666666667,0.666666667 L-0.666666667,19.3333333 Z"></path>
                </g>
                <g id="Rectangle-1134" mask="url(#mask-2)">
                    <use fill="#E92034" fill-rule="evenodd" xlink:href="#path-4"></use>
                    <path stroke="#262626" stroke-width="1.33333333" d="M-0.666666667,19.3333333 L-0.198180464,19.3333333 L14.1129306,10 L-0.198180464,0.666666667 L-0.666666667,0.666666667 L-0.666666667,19.3333333 Z"></path>
                </g>
            </g>
        </g>
    </g>
</svg>