<?xml version="1.0" encoding="UTF-8"?>
<svg width="28px" height="20px" viewBox="0 0 28 20" version="1.1" xmlns="http://www.w3.org/2000/svg" xmlns:xlink="http://www.w3.org/1999/xlink">
    <!-- Generator: Sketch 44.1 (41455) - http://www.bohemiancoding.com/sketch -->
    <title>HN</title>
    <desc>Created with Sketch.</desc>
    <defs>
        <rect id="path-1" x="0" y="0" width="28" height="20" rx="2"></rect>
    </defs>
    <g id="Page-1" stroke="none" stroke-width="1" fill="none" fill-rule="evenodd">
        <g id="Flags" transform="translate(-124.000000, -364.000000)">
            <g id="HN" transform="translate(124.000000, 364.000000)">
                <mask id="mask-2" fill="white">
                    <use xlink:href="#path-1"></use>
                </mask>
                <g id="Mask">
                    <use fill="#FFFFFF" fill-rule="evenodd" xlink:href="#path-1"></use>
                    <rect stroke="#F5F5F5" stroke-width="0.5" x="0.25" y="0.25" width="27.5" height="19.5" rx="2"></rect>
                </g>
                <rect id="Rectangle-2" fill="#0884E6" mask="url(#mask-2)" x="0" y="0" width="28" height="6.66666667"></rect>
                <rect id="Rectangle-2" fill="#0884E6" mask="url(#mask-2)" x="0" y="13.3333333" width="28" height="6.66666667"></rect>
                <polygon id="Star-20" fill="#0E88E9" mask="url(#mask-2)" points="14 10.6666667 13.057191 10.942809 13.3333333 10 13.057191 9.05719096 14 9.33333333 14.942809 9.05719096 14.6666667 10 14.942809 10.942809"></polygon>
                <polygon id="Star-20-Copy" fill="#0E88E9" mask="url(#mask-2)" points="19.3333333 9.33333333 18.3905243 9.60947571 18.6666667 8.66666667 18.3905243 7.72385763 19.3333333 8 20.2761424 7.72385763 20 8.66666667 20.2761424 9.60947571"></polygon>
                <polygon id="Star-20-Copy-2" fill="#0E88E9" mask="url(#mask-2)" points="19.3333333 12 18.3905243 12.2761424 18.6666667 11.3333333 18.3905243 10.3905243 19.3333333 10.6666667 20.2761424 10.3905243 20 11.3333333 20.2761424 12.2761424"></polygon>
                <polygon id="Star-20-Copy-3" fill="#0E88E9" mask="url(#mask-2)" points="8.66666667 12 7.72385763 12.2761424 8 11.3333333 7.72385763 10.3905243 8.66666667 10.6666667 9.60947571 10.3905243 9.33333333 11.3333333 9.60947571 12.2761424"></polygon>
                <polygon id="Star-20-Copy-4" fill="#0E88E9" mask="url(#mask-2)" points="8.66666667 9.33333333 7.72385763 9.60947571 8 8.66666667 7.72385763 7.72385763 8.66666667 8 9.60947571 7.72385763 9.33333333 8.66666667 9.60947571 9.60947571"></polygon>
            </g>
        </g>
    </g>
</svg>