<?xml version="1.0" encoding="UTF-8"?>
<svg width="28px" height="20px" viewBox="0 0 28 20" version="1.1" xmlns="http://www.w3.org/2000/svg" xmlns:xlink="http://www.w3.org/1999/xlink">
    <!-- Generator: Sketch 44.1 (41455) - http://www.bohemiancoding.com/sketch -->
    <title>IR</title>
    <desc>Created with Sketch.</desc>
    <defs>
        <rect id="path-1" x="0" y="0" width="28" height="20" rx="2"></rect>
    </defs>
    <g id="Page-1" stroke="none" stroke-width="1" fill="none" fill-rule="evenodd">
        <g id="Flags" transform="translate(-124.000000, -412.000000)">
            <g id="IR" transform="translate(124.000000, 412.000000)">
                <mask id="mask-2" fill="white">
                    <use xlink:href="#path-1"></use>
                </mask>
                <g id="Mask">
                    <use fill="#FFFFFF" fill-rule="evenodd" xlink:href="#path-1"></use>
                    <rect stroke="#F5F5F5" stroke-width="0.5" x="0.25" y="0.25" width="27.5" height="19.5" rx="2"></rect>
                </g>
                <rect id="Rectangle-2" fill="#38BB56" mask="url(#mask-2)" x="0" y="0" width="28" height="6.66666667"></rect>
                <rect id="Rectangle-2" fill="#DE1B27" mask="url(#mask-2)" x="0" y="13.3333333" width="28" height="6.66666667"></rect>
                <path d="M1.33333333,5.66978963 C1.33333333,5.48396995 1.47602336,5.33333333 1.66978963,5.33333333 L2.33021037,5.33333333 C2.51603005,5.33333333 2.66666667,5.47602336 2.66666667,5.66978963 L2.66666667,6.33021037 C2.66666667,6.51603005 2.52397664,6.66666667 2.33021037,6.66666667 L1.66978963,6.66666667 C1.48396995,6.66666667 1.33333333,6.52397664 1.33333333,6.33021037 L1.33333333,5.66978963 Z M4,5.66978963 C4,5.48396995 4.14269002,5.33333333 4.3364563,5.33333333 L4.99687703,5.33333333 C5.18269672,5.33333333 5.33333333,5.47602336 5.33333333,5.66978963 L5.33333333,6.33021037 C5.33333333,6.51603005 5.19064331,6.66666667 4.99687703,6.66666667 L4.3364563,6.66666667 C4.15063662,6.66666667 4,6.52397664 4,6.33021037 L4,5.66978963 Z M6.66666667,5.66978963 C6.66666667,5.48396995 6.80935669,5.33333333 7.00312297,5.33333333 L7.6635437,5.33333333 C7.84936338,5.33333333 8,5.47602336 8,5.66978963 L8,6.33021037 C8,6.51603005 7.85730998,6.66666667 7.6635437,6.66666667 L7.00312297,6.66666667 C6.81730328,6.66666667 6.66666667,6.52397664 6.66666667,6.33021037 L6.66666667,5.66978963 Z M9.33333333,5.66978963 C9.33333333,5.48396995 9.47602336,5.33333333 9.66978963,5.33333333 L10.3302104,5.33333333 C10.5160301,5.33333333 10.6666667,5.47602336 10.6666667,5.66978963 L10.6666667,6.33021037 C10.6666667,6.51603005 10.5239766,6.66666667 10.3302104,6.66666667 L9.66978963,6.66666667 C9.48396995,6.66666667 9.33333333,6.52397664 9.33333333,6.33021037 L9.33333333,5.66978963 Z M12,5.66978963 C12,5.48396995 12.14269,5.33333333 12.3364563,5.33333333 L12.996877,5.33333333 C13.1826967,5.33333333 13.3333333,5.47602336 13.3333333,5.66978963 L13.3333333,6.33021037 C13.3333333,6.51603005 13.1906433,6.66666667 12.996877,6.66666667 L12.3364563,6.66666667 C12.1506366,6.66666667 12,6.52397664 12,6.33021037 L12,5.66978963 Z M14.6666667,5.66978963 C14.6666667,5.48396995 14.8093567,5.33333333 15.003123,5.33333333 L15.6635437,5.33333333 C15.8493634,5.33333333 16,5.47602336 16,5.66978963 L16,6.33021037 C16,6.51603005 15.85731,6.66666667 15.6635437,6.66666667 L15.003123,6.66666667 C14.8173033,6.66666667 14.6666667,6.52397664 14.6666667,6.33021037 L14.6666667,5.66978963 Z M17.3333333,5.66978963 C17.3333333,5.48396995 17.4760234,5.33333333 17.6697896,5.33333333 L18.3302104,5.33333333 C18.5160301,5.33333333 18.6666667,5.47602336 18.6666667,5.66978963 L18.6666667,6.33021037 C18.6666667,6.51603005 18.5239766,6.66666667 18.3302104,6.66666667 L17.6697896,6.66666667 C17.4839699,6.66666667 17.3333333,6.52397664 17.3333333,6.33021037 L17.3333333,5.66978963 Z M20,5.66978963 C20,5.48396995 20.14269,5.33333333 20.3364563,5.33333333 L20.996877,5.33333333 C21.1826967,5.33333333 21.3333333,5.47602336 21.3333333,5.66978963 L21.3333333,6.33021037 C21.3333333,6.51603005 21.1906433,6.66666667 20.996877,6.66666667 L20.3364563,6.66666667 C20.1506366,6.66666667 20,6.52397664 20,6.33021037 L20,5.66978963 Z M22.6666667,5.66978963 C22.6666667,5.48396995 22.8093567,5.33333333 23.003123,5.33333333 L23.6635437,5.33333333 C23.8493634,5.33333333 24,5.47602336 24,5.66978963 L24,6.33021037 C24,6.51603005 23.85731,6.66666667 23.6635437,6.66666667 L23.003123,6.66666667 C22.8173033,6.66666667 22.6666667,6.52397664 22.6666667,6.33021037 L22.6666667,5.66978963 Z M25.3333333,5.66978963 C25.3333333,5.48396995 25.4760234,5.33333333 25.6697896,5.33333333 L26.3302104,5.33333333 C26.5160301,5.33333333 26.6666667,5.47602336 26.6666667,5.66978963 L26.6666667,6.33021037 C26.6666667,6.51603005 26.5239766,6.66666667 26.3302104,6.66666667 L25.6697896,6.66666667 C25.4839699,6.66666667 25.3333333,6.52397664 25.3333333,6.33021037 L25.3333333,5.66978963 Z M1.33333333,13.6697896 C1.33333333,13.4839699 1.47602336,13.3333333 1.66978963,13.3333333 L2.33021037,13.3333333 C2.51603005,13.3333333 2.66666667,13.4760234 2.66666667,13.6697896 L2.66666667,14.3302104 C2.66666667,14.5160301 2.52397664,14.6666667 2.33021037,14.6666667 L1.66978963,14.6666667 C1.48396995,14.6666667 1.33333333,14.5239766 1.33333333,14.3302104 L1.33333333,13.6697896 Z M4,13.6697896 C4,13.4839699 4.14269002,13.3333333 4.3364563,13.3333333 L4.99687703,13.3333333 C5.18269672,13.3333333 5.33333333,13.4760234 5.33333333,13.6697896 L5.33333333,14.3302104 C5.33333333,14.5160301 5.19064331,14.6666667 4.99687703,14.6666667 L4.3364563,14.6666667 C4.15063662,14.6666667 4,14.5239766 4,14.3302104 L4,13.6697896 Z M6.66666667,13.6697896 C6.66666667,13.4839699 6.80935669,13.3333333 7.00312297,13.3333333 L7.6635437,13.3333333 C7.84936338,13.3333333 8,13.4760234 8,13.6697896 L8,14.3302104 C8,14.5160301 7.85730998,14.6666667 7.6635437,14.6666667 L7.00312297,14.6666667 C6.81730328,14.6666667 6.66666667,14.5239766 6.66666667,14.3302104 L6.66666667,13.6697896 Z M9.33333333,13.6697896 C9.33333333,13.4839699 9.47602336,13.3333333 9.66978963,13.3333333 L10.3302104,13.3333333 C10.5160301,13.3333333 10.6666667,13.4760234 10.6666667,13.6697896 L10.6666667,14.3302104 C10.6666667,14.5160301 10.5239766,14.6666667 10.3302104,14.6666667 L9.66978963,14.6666667 C9.48396995,14.6666667 9.33333333,14.5239766 9.33333333,14.3302104 L9.33333333,13.6697896 Z M12,13.6697896 C12,13.4839699 12.14269,13.3333333 12.3364563,13.3333333 L12.996877,13.3333333 C13.1826967,13.3333333 13.3333333,13.4760234 13.3333333,13.6697896 L13.3333333,14.3302104 C13.3333333,14.5160301 13.1906433,14.6666667 12.996877,14.6666667 L12.3364563,14.6666667 C12.1506366,14.6666667 12,14.5239766 12,14.3302104 L12,13.6697896 Z M14.6666667,13.6697896 C14.6666667,13.4839699 14.8093567,13.3333333 15.003123,13.3333333 L15.6635437,13.3333333 C15.8493634,13.3333333 16,13.4760234 16,13.6697896 L16,14.3302104 C16,14.5160301 15.85731,14.6666667 15.6635437,14.6666667 L15.003123,14.6666667 C14.8173033,14.6666667 14.6666667,14.5239766 14.6666667,14.3302104 L14.6666667,13.6697896 Z M17.3333333,13.6697896 C17.3333333,13.4839699 17.4760234,13.3333333 17.6697896,13.3333333 L18.3302104,13.3333333 C18.5160301,13.3333333 18.6666667,13.4760234 18.6666667,13.6697896 L18.6666667,14.3302104 C18.6666667,14.5160301 18.5239766,14.6666667 18.3302104,14.6666667 L17.6697896,14.6666667 C17.4839699,14.6666667 17.3333333,14.5239766 17.3333333,14.3302104 L17.3333333,13.6697896 Z M20,13.6697896 C20,13.4839699 20.14269,13.3333333 20.3364563,13.3333333 L20.996877,13.3333333 C21.1826967,13.3333333 21.3333333,13.4760234 21.3333333,13.6697896 L21.3333333,14.3302104 C21.3333333,14.5160301 21.1906433,14.6666667 20.996877,14.6666667 L20.3364563,14.6666667 C20.1506366,14.6666667 20,14.5239766 20,14.3302104 L20,13.6697896 Z M22.6666667,13.6697896 C22.6666667,13.4839699 22.8093567,13.3333333 23.003123,13.3333333 L23.6635437,13.3333333 C23.8493634,13.3333333 24,13.4760234 24,13.6697896 L24,14.3302104 C24,14.5160301 23.85731,14.6666667 23.6635437,14.6666667 L23.003123,14.6666667 C22.8173033,14.6666667 22.6666667,14.5239766 22.6666667,14.3302104 L22.6666667,13.6697896 Z M25.3333333,13.6697896 C25.3333333,13.4839699 25.4760234,13.3333333 25.6697896,13.3333333 L26.3302104,13.3333333 C26.5160301,13.3333333 26.6666667,13.4760234 26.6666667,13.6697896 L26.6666667,14.3302104 C26.6666667,14.5160301 26.5239766,14.6666667 26.3302104,14.6666667 L25.6697896,14.6666667 C25.4839699,14.6666667 25.3333333,14.5239766 25.3333333,14.3302104 L25.3333333,13.6697896 Z" id="Rectangle-223" fill-opacity="0.5" fill="#FFFFFF" mask="url(#mask-2)"></path>
                <path d="M12.788363,8.85552223 C12.4987804,9.16173428 12.3333333,9.56724078 12.3333333,10 C12.3333333,10.9204746 13.0795254,11.6666667 14,11.6666667 C14.9204746,11.6666667 15.6666667,10.9204746 15.6666667,10 C15.6666667,9.57620344 15.5080549,9.17844519 15.2291016,8.87429065 L12.788363,8.85552223 Z" id="Oval-1" stroke="#D80915" stroke-width="0.666666667" mask="url(#mask-2)"></path>
                <rect id="Rectangle-243" fill="#D80915" mask="url(#mask-2)" x="13.3333333" y="9.33333333" width="1.33333333" height="2.66666667" rx="0.666666667"></rect>
            </g>
        </g>
    </g>
</svg>