<?xml version="1.0" encoding="UTF-8"?>
<svg width="28px" height="20px" viewBox="0 0 28 20" version="1.1" xmlns="http://www.w3.org/2000/svg" xmlns:xlink="http://www.w3.org/1999/xlink">
    <!-- Generator: Sketch 44.1 (41455) - http://www.bohemiancoding.com/sketch -->
    <title>MK</title>
    <desc>Created with Sketch.</desc>
    <defs>
        <rect id="path-1" x="0" y="0" width="28" height="20" rx="2"></rect>
    </defs>
    <g id="Page-1" stroke="none" stroke-width="1" fill="none" fill-rule="evenodd">
        <g id="Flags" transform="translate(-412.000000, -604.000000)">
            <g id="MK" transform="translate(412.000000, 604.000000)">
                <mask id="mask-2" fill="white">
                    <use xlink:href="#path-1"></use>
                </mask>
                <use id="Mask" fill="#FFFFFF" xlink:href="#path-1"></use>
                <rect id="Mask-Copy" fill="#E81B26" mask="url(#mask-2)" x="0" y="0" width="28" height="20"></rect>
                <circle id="Oval-12" fill="#FFE94F" mask="url(#mask-2)" cx="14" cy="10" r="3.33333333"></circle>
                <path d="M17.1019959,13.4865249 L26.0383456,23.5306406 L28.7148681,20.5580613 L17.7919188,12.7207387 C17.5906105,13.0008084 17.3590409,13.2576656 17.1019959,13.4865249 Z M14.9153846,14.576923 L16,20 L12,20 L13.0846154,14.576923 C13.3806151,14.6357933 13.6867021,14.6666667 14,14.6666667 C14.3132979,14.6666667 14.6193849,14.6357933 14.9153846,14.576923 Z M10.2080812,7.2792613 L-0.714868071,-0.558061264 L1.96165435,-3.53064057 L10.8980041,6.51347511 C10.6409591,6.74233437 10.4093895,6.99919164 10.2080812,7.2792613 Z M13.0846154,5.42307701 L12,-3.95239397e-14 L16,-3.95239397e-14 L14.9153846,5.42307701 C14.6193849,5.36420669 14.3132979,5.33333333 14,5.33333333 C13.6867021,5.33333333 13.3806151,5.36420669 13.0846154,5.42307701 Z M9.37965095,9.33995014 L0,8 L0,12 L9.37965095,10.6600499 C9.34912323,10.4444225 9.33333333,10.2240552 9.33333333,10 C9.33333333,9.77594476 9.34912323,9.55557746 9.37965095,9.33995014 Z M10.8980041,13.4865249 L1.96165435,23.5306406 L-0.714868071,20.5580613 L10.2080812,12.7207387 C10.4093895,13.0008084 10.6409591,13.2576656 10.8980041,13.4865249 Z M18.620349,9.33995014 L28,8 L28,12 L18.620349,10.6600499 C18.6508768,10.4444225 18.6666667,10.2240552 18.6666667,10 C18.6666667,9.77594476 18.6508768,9.55557746 18.620349,9.33995014 Z M17.1019959,6.51347511 L26.0383456,-3.53064057 L28.7148681,-0.558061264 L17.7919188,7.2792613 C17.5906105,6.99919164 17.3590409,6.74233437 17.1019959,6.51347511 Z" id="Rectangle-346" fill="#FFE94F" mask="url(#mask-2)"></path>
            </g>
        </g>
    </g>
</svg>