<?xml version="1.0" encoding="UTF-8"?>
<svg width="28px" height="20px" viewBox="0 0 28 20" version="1.1" xmlns="http://www.w3.org/2000/svg" xmlns:xlink="http://www.w3.org/1999/xlink">
    <!-- Generator: Sketch 44.1 (41455) - http://www.bohemiancoding.com/sketch -->
    <title>MT</title>
    <desc>Created with Sketch.</desc>
    <defs>
        <rect id="path-1" x="0" y="0" width="28" height="20" rx="2"></rect>
        <path d="M5.33333333,4 L5.33333333,2.66666667 L4,2.66666667 L4,4 L2.66666667,4 L2.66666667,5.33333333 L4,5.33333333 L4,6.66666667 L5.33333333,6.66666667 L5.33333333,5.33333333 L6.66666667,5.33333333 L6.66666667,4 L5.33333333,4 Z" id="path-3"></path>
    </defs>
    <g id="Page-1" stroke="none" stroke-width="1" fill="none" fill-rule="evenodd">
        <g id="Flags" transform="translate(-508.000000, -604.000000)">
            <g id="MT" transform="translate(508.000000, 604.000000)">
                <mask id="mask-2" fill="white">
                    <use xlink:href="#path-1"></use>
                </mask>
                <g id="Mask">
                    <use fill="#FFFFFF" fill-rule="evenodd" xlink:href="#path-1"></use>
                    <rect stroke="#F5F5F5" stroke-width="0.5" x="0.25" y="0.25" width="27.5" height="19.5" rx="2"></rect>
                </g>
                <rect id="Rectangle-2-Copy-2" fill="#DE233C" mask="url(#mask-2)" x="14.6666667" y="0" width="13.3333333" height="20"></rect>
                <g id="Rectangle-364" mask="url(#mask-2)">
                    <use fill="#CCCCCD" fill-rule="evenodd" xlink:href="#path-3"></use>
                    <path stroke-opacity="0.66" stroke="#7B716A" stroke-width="0.666666667" d="M5.66666667,3.66666667 L7,3.66666667 L7,5.66666667 L5.66666667,5.66666667 L5.66666667,7 L3.66666667,7 L3.66666667,5.66666667 L2.33333333,5.66666667 L2.33333333,3.66666667 L3.66666667,3.66666667 L3.66666667,2.33333333 L5.66666667,2.33333333 L5.66666667,3.66666667 Z"></path>
                </g>
                <circle id="Oval-20" fill="#7B716A" mask="url(#mask-2)" cx="4.66666667" cy="4.66666667" r="1"></circle>
            </g>
        </g>
    </g>
</svg>