<?xml version="1.0" encoding="UTF-8"?>
<svg width="28px" height="20px" viewBox="0 0 28 20" version="1.1" xmlns="http://www.w3.org/2000/svg" xmlns:xlink="http://www.w3.org/1999/xlink">
    <!-- Generator: Sketch 44.1 (41455) - http://www.bohemiancoding.com/sketch -->
    <title>NP</title>
    <desc>Created with Sketch.</desc>
    <defs>
        <rect id="path-1" x="0" y="0" width="28" height="20" rx="2"></rect>
        <path d="M0,1.99079514 C0,0.891309342 0.902811686,8.75358855e-10 1.99375407,1.93298818e-09 L1.99375407,1.93298818e-09 C2.36539343,2.29327915e-09 2.91798846,0.167547864 3.21742288,0.367170813 L17.5542808,9.92507611 C18.1686346,10.3346453 18.0626183,10.6666667 17.3372931,10.6666667 L8,10.6666667 L17.6631726,19.1219427 C18.2173871,19.6068803 18.066735,20 17.324206,20 L1.99766032,20 C0.89438299,20 0,19.1017876 0,18.0092049 L0,1.99079514 Z" id="path-3"></path>
        <path d="M0,0 L1.99375407,0 C2.36539343,0 2.91798846,0.167547862 3.21742288,0.367170811 L17.5542808,9.92507611 C18.1686346,10.3346453 18.0626183,10.6666667 17.3372931,10.6666667 L8,10.6666667 L17.6631726,19.1219427 C18.2173871,19.6068803 18.066735,20 17.324206,20 L0,20 L0,0 Z" id="path-5"></path>
    </defs>
    <g id="Page-1" stroke="none" stroke-width="1" fill="none" fill-rule="evenodd">
        <g id="Flags" transform="translate(-268.000000, -652.000000)">
            <g id="NP" transform="translate(268.000000, 652.000000)">
                <mask id="mask-2" fill="white">
                    <use xlink:href="#path-1"></use>
                </mask>
                <g id="Mask">
                    <use fill="#FFFFFF" fill-rule="evenodd" xlink:href="#path-1"></use>
                    <rect stroke="#F5F5F5" stroke-width="0.5" x="0.25" y="0.25" width="27.5" height="19.5" rx="2"></rect>
                </g>
                <mask id="mask-4" fill="white">
                    <use xlink:href="#path-3"></use>
                </mask>
                <use id="Mask" fill="#FFFFFF" xlink:href="#path-3"></use>
                <g id="Mask-Copy" mask="url(#mask-4)">
                    <use fill="#EE1B44" fill-rule="evenodd" xlink:href="#path-5"></use>
                    <path stroke="#0543A8" stroke-width="1.33333333" d="M0.666666667,0.666666667 L0.666666667,19.3333333 L16.8923671,19.3333333 L6.2257004,10 L16.4648162,10 L2.84762275,0.921871007 C2.6563724,0.794370773 2.23215646,0.666666667 1.99375407,0.666666667 L0.666666667,0.666666667 Z"></path>
                </g>
                <path d="M6.85108695,7.80076739 C7.23519681,7.69550157 7.5893113,7.55153233 7.90250843,7.37614099 C7.5918586,8.50450951 6.55834747,9.33333333 5.33125417,9.33333333 C4.10416087,9.33333333 3.07064974,8.50450951 2.75999991,7.37614099 C3.07406412,7.5520179 3.42927257,7.69629849 3.8146123,7.80164079 L4.33333333,7.33333333 L3.48557427,6.56796647 L4.62622655,6.62622655 L4.56796647,5.48557427 L5.33333333,6.33333333 L6.0987002,5.48557427 L6.04044011,6.62622655 L7.1810924,6.56796647 L6.33333333,7.33333333 L6.85108695,7.80076739 Z M5.33333333,16 L4.31284418,17.1303454 L4.39052429,15.6094757 L2.86965458,15.6871558 L4,14.6666667 L2.86965458,13.6461775 L4.39052429,13.7238576 L4.31284418,12.2029879 L5.33333333,13.3333333 L6.35382249,12.2029879 L6.27614237,13.7238576 L7.79701209,13.6461775 L6.66666667,14.6666667 L7.79701209,15.6871558 L6.27614237,15.6094757 L6.35382249,17.1303454 L5.33333333,16 Z" id="Star-93" fill="#FFFFFF" mask="url(#mask-4)"></path>
            </g>
        </g>
    </g>
</svg>