<?xml version="1.0" encoding="UTF-8"?>
<svg width="28px" height="20px" viewBox="0 0 28 20" version="1.1" xmlns="http://www.w3.org/2000/svg" xmlns:xlink="http://www.w3.org/1999/xlink">
    <!-- Generator: Sketch 44.1 (41455) - http://www.bohemiancoding.com/sketch -->
    <title>OM</title>
    <desc>Created with Sketch.</desc>
    <defs>
        <rect id="path-1" x="0" y="0" width="28" height="20" rx="2"></rect>
    </defs>
    <g id="Page-1" stroke="none" stroke-width="1" fill="none" fill-rule="evenodd">
        <g id="Flags" transform="translate(-28.000000, -700.000000)">
            <g id="OM" transform="translate(28.000000, 700.000000)">
                <mask id="mask-2" fill="white">
                    <use xlink:href="#path-1"></use>
                </mask>
                <g id="Mask">
                    <use fill="#FFFFFF" fill-rule="evenodd" xlink:href="#path-1"></use>
                    <rect stroke="#F5F5F5" stroke-width="0.5" x="0.25" y="0.25" width="27.5" height="19.5" rx="2"></rect>
                </g>
                <rect id="Rectangle-2" fill="#138E16" mask="url(#mask-2)" x="0" y="13.3333333" width="28" height="6.66666667"></rect>
                <polygon id="Rectangle-2" fill="#ED2B35" mask="url(#mask-2)" points="0 20 9.33333333 20 9.33333333 13.3333333 28 13.3333333 28 6.66666667 9.33333333 6.66666667 9.33333333 0 0 0"></polygon>
                <polygon id="Star-32" fill="#FFFFFF" mask="url(#mask-2)" points="4.66666667 4.71175799 3.50964336 6.40258365 4.11019186 4.44377385 2.0668589 4.59338916 3.97275393 3.84161895 2.58178271 2.33736053 4.35784645 3.35872821 4.66666667 1.33333333 4.97548689 3.35872821 6.75155062 2.33736053 5.3605794 3.84161895 7.26647443 4.59338916 5.22314147 4.44377385 5.82368997 6.40258365"></polygon>
            </g>
        </g>
    </g>
</svg>