<?xml version="1.0" encoding="UTF-8"?>
<svg width="28px" height="20px" viewBox="0 0 28 20" version="1.1" xmlns="http://www.w3.org/2000/svg" xmlns:xlink="http://www.w3.org/1999/xlink">
    <!-- Generator: Sketch 44.1 (41455) - http://www.bohemiancoding.com/sketch -->
    <title>PA</title>
    <desc>Created with Sketch.</desc>
    <defs>
        <rect id="path-1" x="0" y="0" width="28" height="20" rx="2"></rect>
    </defs>
    <g id="Page-1" stroke="none" stroke-width="1" fill="none" fill-rule="evenodd">
        <g id="Flags" transform="translate(-76.000000, -748.000000)">
            <g id="PA" transform="translate(76.000000, 748.000000)">
                <mask id="mask-2" fill="white">
                    <use xlink:href="#path-1"></use>
                </mask>
                <g id="Mask">
                    <use fill="#FFFFFF" fill-rule="evenodd" xlink:href="#path-1"></use>
                    <rect stroke="#F5F5F5" stroke-width="0.5" x="0.25" y="0.25" width="27.5" height="19.5" rx="2"></rect>
                </g>
                <path d="M0,9.33333333 L0,0 L28,0 L28,9.33333333 L0,9.33333333 Z M0,9.33333333 L0,0 L13.3333333,0 L13.3333333,9.33333333 L0,9.33333333 Z" id="Combined-Shape" fill="#E52448" mask="url(#mask-2)"></path>
                <path d="M0,20 L0,9.33333333 L28,9.33333333 L28,20 L0,20 Z M13.3333333,20 L28,20 L28,9.33333333 L13.3333333,9.33333333 L13.3333333,20 Z" id="Combined-Shape" fill="#1367AE" mask="url(#mask-2)"></path>
                <polygon id="Star-33" fill="#1367AE" mask="url(#mask-2)" points="6.66666667 5.75999999 5.09923933 6.82404532 5.62684488 5.00452524 4.13051596 3.84262135 6.02402146 3.78214143 6.66666667 2 7.30931187 3.78214143 9.20281738 3.84262135 7.70648845 5.00452524 8.23409401 6.82404532"></polygon>
                <polygon id="Star-33" fill="#E52448" mask="url(#mask-2)" points="20.6666667 15.76 19.0992393 16.8240453 19.6268449 15.0045252 18.130516 13.8426213 20.0240215 13.7821414 20.6666667 12 21.3093119 13.7821414 23.2028174 13.8426213 21.7064884 15.0045252 22.234094 16.8240453"></polygon>
            </g>
        </g>
    </g>
</svg>