<?xml version="1.0" encoding="UTF-8"?>
<svg width="28px" height="20px" viewBox="0 0 28 20" version="1.1" xmlns="http://www.w3.org/2000/svg" xmlns:xlink="http://www.w3.org/1999/xlink">
    <!-- Generator: Sketch 44.1 (41455) - http://www.bohemiancoding.com/sketch -->
    <title>PF</title>
    <desc>Created with Sketch.</desc>
    <defs>
        <rect id="path-1" x="0" y="0" width="28" height="20" rx="2"></rect>
        <circle id="path-3" cx="3.33333333" cy="3.33333333" r="3.33333333"></circle>
    </defs>
    <g id="Page-1" stroke="none" stroke-width="1" fill="none" fill-rule="evenodd">
        <g id="Flags" transform="translate(-508.000000, -748.000000)">
            <g id="PF" transform="translate(508.000000, 748.000000)">
                <mask id="mask-2" fill="white">
                    <use xlink:href="#path-1"></use>
                </mask>
                <g id="Mask">
                    <use fill="#FFFFFF" fill-rule="evenodd" xlink:href="#path-1"></use>
                    <rect stroke="#F5F5F5" stroke-width="0.5" x="0.25" y="0.25" width="27.5" height="19.5" rx="2"></rect>
                </g>
                <rect id="Rectangle-2" fill="#D82332" mask="url(#mask-2)" x="0" y="0" width="28" height="5.33333333"></rect>
                <rect id="Rectangle-2" fill="#D82332" mask="url(#mask-2)" x="0" y="14.6666667" width="28" height="5.33333333"></rect>
                <g id="Group-5" mask="url(#mask-2)">
                    <g transform="translate(10.666667, 6.666667)">
                        <g id="Group-3">
                            <path d="M3.95851852,0.0602550439 C3.26730159,-0.0840460313 2.64550265,-0.000712698005 2.64550265,0.66003999 L2.64550265,2.46896472 C2.64550265,2.66778193 2.64941799,2.69294322 2.88222222,2.74799698 C3.38719577,2.86745935 3.43449735,2.87950236 3.9837037,3.0076744 L3.9837037,1.14756687 C3.55449735,1.09939483 3.39037037,0.854663646 3.39037037,0.570255044 C3.39037037,0.294448592 3.57968254,0.114771173 3.95851852,0.0602550439" id="Fill-18" fill="#514437"></path>
                            <path d="M2.18720592,5.16182796 C1.80212655,5.16182796 1.39810539,4.82182796 1.39810539,4.17397849 L1.39810539,2.56387097 C1.39810539,2.41795699 1.41429587,2.39741935 1.38075089,2.36344086 C1.36106835,2.34344086 1.40286729,2.31376344 1.43122708,2.28483871 C1.47387259,2.24150538 1.50307894,2.20548387 1.4455128,2.14688172 C1.38784084,2.0883871 1.4123911,2.07311828 1.4486874,2.03634409 C1.4849837,1.99935484 1.49916359,1.96258065 1.4644546,1.9272043 C1.4297456,1.89193548 1.42180909,1.88075269 1.45969269,1.84225806 C1.49757629,1.80376344 1.48180909,1.78774194 1.4502747,1.7555914 C1.41863449,1.72354839 1.40371386,1.70032258 1.4439255,1.65946237 C1.4833964,1.61935484 1.48646518,1.61290323 1.53228528,1.61290323 L1.72170327,1.61290323 C1.76593608,1.61290323 1.76667682,1.62655914 1.72953396,1.66430108 C1.68138581,1.71311828 1.66720592,1.73236559 1.72170327,1.78774194 C1.77609481,1.84301075 1.77376677,1.86150538 1.73905777,1.89677419 C1.68688846,1.94967742 1.66403132,1.98580645 1.71694137,2.03956989 C1.76985142,2.09322581 1.77450751,2.11731183 1.73429587,2.15817204 C1.69408423,2.19903226 1.69006306,2.23516129 1.73429587,2.28 C1.76826412,2.31451613 1.77059216,2.33462366 1.77059216,2.39548387 L1.77059216,4.03924731 C1.77059216,4.31505376 1.96625354,4.48182796 2.33874031,4.48182796 C2.71122708,4.48182796 2.83747047,4.32784946 2.94477206,4.22526882 C2.87535407,4.71913978 2.67334349,5.16182796 2.18720592,5.16182796" id="Fill-19" fill="#514437"></path>
                            <path d="M4.35544974,5.16182796 C4.7405291,5.16182796 5.14455026,4.82182796 5.14455026,4.17397849 L5.14455026,2.56387097 C5.14455026,2.41795699 5.12835979,2.39741935 5.16190476,2.36344086 C5.1815873,2.34344086 5.13978836,2.31376344 5.11142857,2.28483871 C5.06878307,2.24150538 5.03957672,2.20548387 5.09714286,2.14688172 C5.15481481,2.0883871 5.13026455,2.07311828 5.09407407,2.03634409 C5.05767196,1.99935484 5.04349206,1.96258065 5.07820106,1.9272043 C5.11291005,1.89193548 5.12084656,1.88075269 5.08296296,1.84225806 C5.04507937,1.80376344 5.06084656,1.78774194 5.09238095,1.7555914 C5.12402116,1.72354839 5.1389418,1.70032258 5.09873016,1.65946237 C5.05925926,1.61935484 5.05619048,1.61290323 5.01037037,1.61290323 L4.82095238,1.61290323 C4.7768254,1.61290323 4.77597884,1.62655914 4.81312169,1.66430108 C4.86126984,1.71311828 4.87544974,1.73236559 4.82095238,1.78774194 C4.76656085,1.84301075 4.76888889,1.86150538 4.80359788,1.89677419 C4.8557672,1.94967742 4.87851852,1.98580645 4.82571429,2.03956989 C4.77280423,2.09322581 4.76804233,2.11731183 4.80835979,2.15817204 C4.84857143,2.19903226 4.85259259,2.23516129 4.80835979,2.28 C4.77439153,2.31451613 4.77206349,2.33462366 4.77206349,2.39548387 L4.77206349,4.03924731 C4.77206349,4.31505376 4.5762963,4.48182796 4.20391534,4.48182796 C3.83142857,4.48182796 3.70529101,4.32784946 3.5978836,4.22526882 C3.66730159,4.71913978 3.86931217,5.16182796 4.35544974,5.16182796" id="Fill-26" fill="#514437"></path>
                            <path d="M1.24243386,3.10612903 L0,2.93591398 C0.0360846561,2.66537634 0.104338624,2.4016129 0.202539683,2.15053763 L1.24243386,2.57 L1.24243386,3.10612903" id="Fill-31" fill="#EFA338"></path>
                            <path d="M3.80952381,1.02924731 L4.03037037,0.107526882 C4.28878307,0.171182796 4.54,0.267096774 4.77809524,0.393548387 L4.06582011,1.77892473 L4.06835979,1.08333333 C3.98613757,1.08376344 3.86,1.07096774 3.80952381,1.02924731" id="Fill-33" fill="#EFA338"></path>
                            <path d="M1.27173948,3.19634409 L0.00613101701,3.11827957 C-0.0101652793,3.38795699 0.0060251969,3.66010753 0.0547024456,3.92860215 C0.0547024456,3.92860215 1.27173948,3.93634409 1.27173948,3.92860215 L1.27173948,3.19634409" id="Fill-35" fill="#EFA338"></path>
                            <path d="M1.25915344,2.32892473 C1.21820106,2.2744086 1.24349206,2.24537634 1.28761905,2.21645161 C1.33185185,2.18763441 1.32550265,2.16516129 1.30349206,2.12354839 C1.28137566,2.08182796 1.25925926,2.03688172 1.30031746,1.99204301 C1.34137566,1.94709677 1.32550265,1.92784946 1.29396825,1.89580645 C1.26243386,1.86376344 1.25925926,1.82849462 1.28761905,1.8027957 C1.31608466,1.77709677 1.30973545,1.75784946 1.29089947,1.73225806 C1.27185185,1.70655914 1.23470899,1.65451613 1.26793651,1.62086022 L0.751640212,1.1827957 C0.581058201,1.39010753 0.435026455,1.61892473 0.317460317,1.86430108 L1.25915344,2.32892473" id="Fill-37" fill="#EFA338"></path>
                            <path d="M2.49608466,2.56774194 L1.88074074,1.96139785 C1.96751323,1.87322581 1.97619048,1.8588172 1.91470899,1.79623656 C1.84761905,1.72806452 1.84518519,1.72096774 1.98169312,1.58215054 C2.02825397,1.53494624 2.00222222,1.50193548 1.93597884,1.50193548 L1.53037037,1.50193548 C1.49566138,1.50193548 1.46835979,1.50376344 1.44296296,1.52956989 L0.952380952,1.04698925 C1.13957672,0.851182796 1.34867725,0.680322581 1.57449735,0.537634409 L2.49608466,2.04354839 L2.49608466,2.56774194" id="Fill-39" fill="#EFA338"></path>
                            <path d="M1.85610283,2.66 C1.85610283,2.50935484 1.85620865,2.36021505 1.85620865,2.33903226 C1.85620865,2.29408602 1.85303404,2.27645161 1.81832505,2.2411828 C1.78361605,2.20591398 1.80097055,2.18903226 1.82784886,2.15053763 L2.41155256,2.64462366 L2.41155256,2.93473118 L1.85610283,2.66" id="Fill-41" fill="#EFA338"></path>
                            <path d="M2.40285714,1.77967742 L2.40285714,1.06849462 C2.40285714,0.606666667 2.42835979,0.375698925 2.49460317,0.329247312 L2.4415873,0.107526882 C2.18243386,0.178387097 1.93121693,0.274301075 1.69312169,0.400752688 L2.40285714,1.77967742" id="Fill-43" fill="#EFA338"></path>
                            <path d="M5.29100529,3.10612903 L6.53343915,2.93591398 C6.4973545,2.66537634 6.42910053,2.4016129 6.33089947,2.15053763 L5.29100529,2.57 L5.29100529,3.10612903" id="Fill-47" fill="#EFA338"></path>
                            <path d="M5.29100529,3.19634409 L6.55650794,3.11827957 C6.57280423,3.38795699 6.55671958,3.66010753 6.50793651,3.92860215 C6.50793651,3.92860215 5.29100529,3.93634409 5.29100529,3.92860215 L5.29100529,3.19634409" id="Fill-49" fill="#EFA338"></path>
                            <path d="M5.25101719,2.32892473 C5.29207539,2.2744086 5.26667857,2.24537634 5.22255159,2.21645161 C5.17831878,2.18763441 5.18466799,2.16516129 5.20667857,2.12354839 C5.22879497,2.08182796 5.25091137,2.03688172 5.20985317,1.99204301 C5.16879497,1.94709677 5.18466799,1.92784946 5.21620238,1.89580645 C5.24773677,1.86376344 5.25091137,1.82849462 5.22255159,1.8027957 C5.19408598,1.77709677 5.20043518,1.75784946 5.21927116,1.73225806 C5.23831878,1.70655914 5.27535582,1.65451613 5.24223412,1.62086022 L5.75853042,1.1827957 C5.92911243,1.39010753 6.07503836,1.61892473 6.1926045,1.86430108 L5.25101719,2.32892473" id="Fill-51" fill="#EFA338"></path>
                            <path d="M4.12698413,2.56774194 L4.74232804,1.96139785 C4.65544974,1.87322581 4.64677249,1.8588172 4.70835979,1.79623656 C4.77544974,1.72806452 4.7778836,1.72096774 4.64137566,1.58215054 C4.59470899,1.53494624 4.62084656,1.50193548 4.68708995,1.50193548 L5.09269841,1.50193548 C5.12740741,1.50193548 5.15470899,1.50376344 5.18010582,1.52956989 L5.67068783,1.04698925 C5.48349206,0.851182796 5.27439153,0.680322581 5.04857143,0.537634409 L4.12698413,2.04354839 L4.12698413,2.56774194" id="Fill-53" fill="#EFA338"></path>
                            <path d="M4.68243386,2.66 C4.68243386,2.50935484 4.68232804,2.36021505 4.68232804,2.33903226 C4.68232804,2.29408602 4.68550265,2.27645161 4.72021164,2.2411828 C4.75492063,2.20591398 4.73756614,2.18903226 4.71068783,2.15053763 L4.12698413,2.64462366 L4.12698413,2.93473118 L4.68243386,2.66" id="Fill-55" fill="#EFA338"></path>
                            <path d="M1.48148148,2.3655914 C1.50359788,2.38806452 1.51312169,2.41043011 1.51312169,2.46494624 L1.51312169,4.18086022 C1.51312169,4.75172043 1.85396825,5.06924731 2.20433862,5.06924731 C2.52624339,5.06924731 2.73777778,4.77096774 2.84825397,4.42462366 C2.70624339,4.53688172 2.4978836,4.57215054 2.2989418,4.57215054 C2.06857143,4.57215054 1.69619048,4.41505376 1.69619048,4.07505376 L1.69619048,2.41043011 C1.69619048,2.3655914 1.65195767,2.3655914 1.48148148,2.3655914" id="Fill-57" fill="#D82331"></path>
                            <path d="M3.49437615,0.117372473 C3.05427033,0.0721036557 2.64601637,0.165114408 2.64601637,0.775221935 L2.64601637,2.39618968 C2.64601637,2.66683484 2.62506398,2.6346843 2.85077827,2.69156602 C3.26030208,2.79479183 3.30675711,2.80791011 3.80347668,2.92317892 L3.80347668,1.27393161 C3.3793497,1.22672731 3.19554017,0.944469247 3.19554017,0.631888602 C3.19554017,0.383178924 3.30368832,0.149092903 3.49437615,0.117372473" id="Fill-58" fill="#D82331"></path>
                            <path d="M5.07047619,2.3655914 C5.04835979,2.38806452 5.03883598,2.41043011 5.03883598,2.46494624 L5.03883598,4.18086022 C5.03883598,4.75172043 4.69798942,5.06924731 4.34761905,5.06924731 C4.02571429,5.06924731 3.81417989,4.77096774 3.7037037,4.42462366 C3.84582011,4.53688172 4.05407407,4.57215054 4.25301587,4.57215054 C4.48338624,4.57215054 4.8557672,4.41505376 4.8557672,4.07505376 L4.8557672,2.41043011 C4.8557672,2.3655914 4.9,2.3655914 5.07047619,2.3655914" id="Fill-59" fill="#D82331"></path>
                        </g>
                        <g id="Oval-210">
                            <mask id="mask-4" fill="white">
                                <use xlink:href="#path-3"></use>
                            </mask>
                            <g id="Mask"></g>
                            <circle fill="#064A89" mask="url(#mask-4)" cx="3.33333333" cy="8.66666667" r="3.33333333"></circle>
                        </g>
                    </g>
                </g>
            </g>
        </g>
    </g>
</svg>