<?xml version="1.0" encoding="UTF-8"?>
<svg width="28px" height="20px" viewBox="0 0 28 20" version="1.1" xmlns="http://www.w3.org/2000/svg" xmlns:xlink="http://www.w3.org/1999/xlink">
    <!-- Generator: Sketch 44.1 (41455) - http://www.bohemiancoding.com/sketch -->
    <title>PH</title>
    <desc>Created with Sketch.</desc>
    <defs>
        <rect id="path-1" x="0" y="0" width="28" height="20" rx="2"></rect>
    </defs>
    <g id="Page-1" stroke="none" stroke-width="1" fill="none" fill-rule="evenodd">
        <g id="Flags" transform="translate(-220.000000, -748.000000)">
            <g id="PH" transform="translate(220.000000, 748.000000)">
                <mask id="mask-2" fill="white">
                    <use xlink:href="#path-1"></use>
                </mask>
                <g id="Mask">
                    <use fill="#FFFFFF" fill-rule="evenodd" xlink:href="#path-1"></use>
                    <rect stroke="#F5F5F5" stroke-width="0.5" x="0.25" y="0.25" width="27.5" height="19.5" rx="2"></rect>
                </g>
                <path d="M0,14.6666667 L0,20 L28,20 L28,9.33333333 L12.4444444,9.33333333 L13.3333333,10 L0,20 L0,14.6666667 Z" id="Combined-Shape" fill="#DD1C34" mask="url(#mask-2)"></path>
                <path d="M0,4.66666667 L0,0 L28,0 L28,9.33333333 L12.4444444,9.33333333 L0,0 L0,4.66666667 Z" id="Combined-Shape" fill="#0D4BC3" mask="url(#mask-2)"></path>
                <path d="M4.53207529,11.3266245 L3.39105523,13.0795984 L3.82378596,11.0331696 C3.75415167,10.9762924 3.6903743,10.912515 3.63349711,10.8428807 L1.58706822,11.2756114 L3.34004221,10.1345914 C3.33560544,10.0903299 3.33333333,10.0454303 3.33333333,10 C3.33333333,9.95456972 3.33560544,9.90967011 3.34004221,9.86540862 L1.58706822,8.72438856 L3.63349711,9.15711929 C3.6903743,9.08748501 3.75415167,9.02370764 3.82378596,8.96683045 L3.39105523,6.92040156 L4.53207529,8.67337554 C4.57633678,8.66893877 4.62123638,8.66666667 4.66666667,8.66666667 C4.71209695,8.66666667 4.75699655,8.66893877 4.80125804,8.67337554 L5.94227811,6.92040156 L5.50954737,8.96683045 C5.57918166,9.02370764 5.64295903,9.08748501 5.69983622,9.15711929 L7.74626511,8.72438856 L5.99329113,9.86540862 C5.9977279,9.90967011 6,9.95456972 6,10 C6,10.0454303 5.9977279,10.0903299 5.99329113,10.1345914 L7.74626511,11.2756114 L5.69983622,10.8428807 C5.64295903,10.912515 5.57918166,10.9762924 5.50954737,11.0331696 L5.94227811,13.0795984 L4.80125804,11.3266245 C4.75699655,11.3310612 4.71209695,11.3333333 4.66666667,11.3333333 C4.62123638,11.3333333 4.57633678,11.3310612 4.53207529,11.3266245 Z M10,10.6666667 C9.63181017,10.6666667 9.33333333,10.3681898 9.33333333,10 C9.33333333,9.63181017 9.63181017,9.33333333 10,9.33333333 C10.3681898,9.33333333 10.6666667,9.63181017 10.6666667,10 C10.6666667,10.3681898 10.3681898,10.6666667 10,10.6666667 Z M2,4 C1.63181017,4 1.33333333,3.70152317 1.33333333,3.33333333 C1.33333333,2.9651435 1.63181017,2.66666667 2,2.66666667 C2.36818983,2.66666667 2.66666667,2.9651435 2.66666667,3.33333333 C2.66666667,3.70152317 2.36818983,4 2,4 Z M2,17.3333333 C1.63181017,17.3333333 1.33333333,17.0348565 1.33333333,16.6666667 C1.33333333,16.2984768 1.63181017,16 2,16 C2.36818983,16 2.66666667,16.2984768 2.66666667,16.6666667 C2.66666667,17.0348565 2.36818983,17.3333333 2,17.3333333 Z" id="Oval-206" fill="#FDD64D" mask="url(#mask-2)"></path>
            </g>
        </g>
    </g>
</svg>