<?xml version="1.0" encoding="UTF-8"?>
<svg width="28px" height="20px" viewBox="0 0 28 20" version="1.1" xmlns="http://www.w3.org/2000/svg" xmlns:xlink="http://www.w3.org/1999/xlink">
    <!-- Generator: Sketch 44.1 (41455) - http://www.bohemiancoding.com/sketch -->
    <title>SC</title>
    <desc>Created with Sketch.</desc>
    <defs>
        <rect id="path-1" x="0" y="0" width="28" height="20" rx="2"></rect>
        <linearGradient x1="50%" y1="0%" x2="50%" y2="100%" id="linearGradient-3">
            <stop stop-color="#1CBE4F" offset="0%"></stop>
            <stop stop-color="#159B3F" offset="100%"></stop>
        </linearGradient>
    </defs>
    <g id="Page-1" stroke="none" stroke-width="1" fill="none" fill-rule="evenodd">
        <g id="Flags" transform="translate(-652.000000, -892.000000)">
            <g id="SC" transform="translate(652.000000, 892.000000)">
                <mask id="mask-2" fill="white">
                    <use xlink:href="#path-1"></use>
                </mask>
                <g id="Mask">
                    <use fill="#FFFFFF" fill-rule="evenodd" xlink:href="#path-1"></use>
                    <rect stroke="#F5F5F5" stroke-width="0.5" x="0.25" y="0.25" width="27.5" height="19.5" rx="2"></rect>
                </g>
                <path d="M0,0 L28,0 L28,20 L0,20 L0,0 Z M28,13.3333333 L28,6.66666667 L0,20 L28,13.3333333 Z" id="Combined-Shape" fill="url(#linearGradient-3)" mask="url(#mask-2)"></path>
                <polygon id="Rectangle-253" fill="#0858B4" mask="url(#mask-2)" points="0 0 9.33333333 0 0 20"></polygon>
                <polygon id="Rectangle-253" fill="#ED3535" mask="url(#mask-2)" points="18.6666667 0 28 0 28 6.66666667 0 20"></polygon>
                <polygon id="Rectangle-253" fill="#08964F" mask="url(#mask-2)" points="28 20 28 13.3333333 0 20"></polygon>
                <polygon id="Rectangle-253" fill="#FFDD67" mask="url(#mask-2)" points="9.33333333 0 18.6666667 0 0 20"></polygon>
            </g>
        </g>
    </g>
</svg>