<?xml version="1.0" encoding="UTF-8"?>
<svg width="28px" height="20px" viewBox="0 0 28 20" version="1.1" xmlns="http://www.w3.org/2000/svg" xmlns:xlink="http://www.w3.org/1999/xlink">
    <!-- Generator: Sketch 44.1 (41455) - http://www.bohemiancoding.com/sketch -->
    <title>SG</title>
    <desc>Created with Sketch.</desc>
    <defs>
        <linearGradient x1="50%" y1="0%" x2="50%" y2="100%" id="linearGradient-1">
            <stop stop-color="#FFFFFF" offset="0%"></stop>
            <stop stop-color="#F0F0F0" offset="100%"></stop>
        </linearGradient>
        <rect id="path-2" x="0" y="0" width="28" height="20" rx="2"></rect>
    </defs>
    <g id="Page-1" stroke="none" stroke-width="1" fill="none" fill-rule="evenodd">
        <g id="Flags" transform="translate(-76.000000, -892.000000)">
            <g id="SG" transform="translate(76.000000, 892.000000)">
                <mask id="mask-3" fill="white">
                    <use xlink:href="#path-2"></use>
                </mask>
                <g id="Mask">
                    <use fill="#FFFFFF" fill-rule="evenodd" xlink:href="#path-2"></use>
                    <rect stroke="#F5F5F5" stroke-width="0.5" x="0.25" y="0.25" width="27.5" height="19.5" rx="2"></rect>
                </g>
                <rect id="Rectangle-2" fill="#E12237" mask="url(#mask-3)" x="0" y="0" width="28" height="10.6666667"></rect>
                <path d="M9.16484663,2.20918973 C8.80224104,2.0739341 8.40975463,2 8,2 C6.15905083,2 4.66666667,3.49238417 4.66666667,5.33333333 C4.66666667,7.1742825 6.15905083,8.66666667 8,8.66666667 C8.40975463,8.66666667 8.80224104,8.59273257 9.16484663,8.45747694 C8.48032782,9.00555558 7.61177554,9.33333333 6.66666667,9.33333333 C4.45752767,9.33333333 2.66666667,7.54247233 2.66666667,5.33333333 C2.66666667,3.12419433 4.45752767,1.33333333 6.66666667,1.33333333 C7.61177554,1.33333333 8.48032782,1.66111109 9.16484663,2.20918973 Z M7.33333333,5.33333333 C6.9651435,5.33333333 6.66666667,5.0348565 6.66666667,4.66666667 C6.66666667,4.29847683 6.9651435,4 7.33333333,4 C7.70152317,4 8,4.29847683 8,4.66666667 C8,5.0348565 7.70152317,5.33333333 7.33333333,5.33333333 Z M8.66666667,8 C8.29847683,8 8,7.70152317 8,7.33333333 C8,6.9651435 8.29847683,6.66666667 8.66666667,6.66666667 C9.0348565,6.66666667 9.33333333,6.9651435 9.33333333,7.33333333 C9.33333333,7.70152317 9.0348565,8 8.66666667,8 Z M11.3333333,8 C10.9651435,8 10.6666667,7.70152317 10.6666667,7.33333333 C10.6666667,6.9651435 10.9651435,6.66666667 11.3333333,6.66666667 C11.7015232,6.66666667 12,6.9651435 12,7.33333333 C12,7.70152317 11.7015232,8 11.3333333,8 Z M12.6666667,5.33333333 C12.2984768,5.33333333 12,5.0348565 12,4.66666667 C12,4.29847683 12.2984768,4 12.6666667,4 C13.0348565,4 13.3333333,4.29847683 13.3333333,4.66666667 C13.3333333,5.0348565 13.0348565,5.33333333 12.6666667,5.33333333 Z M10,3.33333333 C9.63181017,3.33333333 9.33333333,3.0348565 9.33333333,2.66666667 C9.33333333,2.29847683 9.63181017,2 10,2 C10.3681898,2 10.6666667,2.29847683 10.6666667,2.66666667 C10.6666667,3.0348565 10.3681898,3.33333333 10,3.33333333 Z" id="Oval-12" fill="#FFFFFF" mask="url(#mask-3)"></path>
            </g>
        </g>
    </g>
</svg>