<?xml version="1.0" encoding="UTF-8"?>
<svg width="28px" height="20px" viewBox="0 0 28 20" version="1.1" xmlns="http://www.w3.org/2000/svg" xmlns:xlink="http://www.w3.org/1999/xlink">
    <!-- Generator: Sketch 44.1 (41455) - http://www.bohemiancoding.com/sketch -->
    <title>SV</title>
    <desc>Created with Sketch.</desc>
    <defs>
        <rect id="path-1" x="0" y="0" width="28" height="20" rx="2"></rect>
        <linearGradient x1="50%" y1="0%" x2="50%" y2="100%" id="linearGradient-3">
            <stop stop-color="#3C7839" offset="0%"></stop>
            <stop stop-color="#31642E" offset="100%"></stop>
        </linearGradient>
    </defs>
    <g id="Page-1" stroke="none" stroke-width="1" fill="none" fill-rule="evenodd">
        <g id="Flags" transform="translate(-172.000000, -220.000000)">
            <g id="SV" transform="translate(172.000000, 220.000000)">
                <mask id="mask-2" fill="white">
                    <use xlink:href="#path-1"></use>
                </mask>
                <g id="Mask">
                    <use fill="#FFFFFF" fill-rule="evenodd" xlink:href="#path-1"></use>
                    <rect stroke="#F5F5F5" stroke-width="0.5" x="0.25" y="0.25" width="27.5" height="19.5" rx="2"></rect>
                </g>
                <rect id="Rectangle-2" fill="#1B57C4" mask="url(#mask-2)" x="0" y="0" width="28" height="6.66666667"></rect>
                <rect id="Rectangle-2" fill="#1B57C4" mask="url(#mask-2)" x="0" y="13.3333333" width="28" height="6.66666667"></rect>
                <path d="M12.3999479,7.86651047 C11.7522726,8.35302292 11.3333333,9.1275872 11.3333333,10 C11.3333333,11.4727593 12.5272407,12.6666667 14,12.6666667 C15.4727593,12.6666667 16.6666667,11.4727593 16.6666667,10 C16.6666667,9.1275872 16.2477274,8.35302292 15.6000521,7.86651047 L14.6666667,10.6666667 L13.3333333,10.6666667 L12.3999479,7.86651047 Z" id="Oval-12" fill="url(#linearGradient-3)" mask="url(#mask-2)"></path>
                <polygon id="Rectangle-483" fill="#F9C92E" mask="url(#mask-2)" points="14 7.33333333 14.6666667 10.6666667 13.3333333 10.6666667"></polygon>
            </g>
        </g>
    </g>
</svg>