<?xml version="1.0" encoding="UTF-8"?>
<svg width="28px" height="20px" viewBox="0 0 28 20" version="1.1" xmlns="http://www.w3.org/2000/svg" xmlns:xlink="http://www.w3.org/1999/xlink">
    <!-- Generator: Sketch 44.1 (41455) - http://www.bohemiancoding.com/sketch -->
    <title>SY</title>
    <desc>Created with Sketch.</desc>
    <defs>
        <rect id="path-1" x="0" y="0" width="28" height="20" rx="2"></rect>
    </defs>
    <g id="Page-1" stroke="none" stroke-width="1" fill="none" fill-rule="evenodd">
        <g id="Flags" transform="translate(-556.000000, -892.000000)">
            <g id="SY" transform="translate(556.000000, 892.000000)">
                <mask id="mask-2" fill="white">
                    <use xlink:href="#path-1"></use>
                </mask>
                <g id="Mask">
                    <use fill="#FFFFFF" fill-rule="evenodd" xlink:href="#path-1"></use>
                    <rect stroke="#F5F5F5" stroke-width="0.5" x="0.25" y="0.25" width="27.5" height="19.5" rx="2"></rect>
                </g>
                <rect id="Rectangle-2" fill="#262626" mask="url(#mask-2)" x="0" y="13.3333333" width="28" height="6.66666667"></rect>
                <rect id="Rectangle-2" fill="#E32139" mask="url(#mask-2)" x="0" y="0" width="28" height="6.66666667"></rect>
                <polygon id="Star-33" fill="#128A49" mask="url(#mask-2)" points="9.33333333 11.0933333 7.76590599 12.1573787 8.29351155 10.3378586 6.79718262 9.17595468 8.69068813 9.11547476 9.33333333 7.33333333 9.97597854 9.11547476 11.869484 9.17595468 10.3731551 10.3378586 10.9007607 12.1573787"></polygon>
                <polygon id="Star-33" fill="#128A49" mask="url(#mask-2)" points="18.6666667 11.0933333 17.0992393 12.1573787 17.6268449 10.3378586 16.130516 9.17595468 18.0240215 9.11547476 18.6666667 7.33333333 19.3093119 9.11547476 21.2028174 9.17595468 19.7064884 10.3378586 20.234094 12.1573787"></polygon>
            </g>
        </g>
    </g>
</svg>