<?xml version="1.0" encoding="UTF-8"?>
<svg width="28px" height="20px" viewBox="0 0 28 20" version="1.1" xmlns="http://www.w3.org/2000/svg" xmlns:xlink="http://www.w3.org/1999/xlink">
    <!-- Generator: Sketch 44.1 (41455) - http://www.bohemiancoding.com/sketch -->
    <title>TJ</title>
    <desc>Created with Sketch.</desc>
    <defs>
        <rect id="path-1" x="0" y="0" width="28" height="20" rx="2"></rect>
    </defs>
    <g id="Page-1" stroke="none" stroke-width="1" fill="none" fill-rule="evenodd">
        <g id="Flags" transform="translate(-172.000000, -940.000000)">
            <g id="TJ" transform="translate(172.000000, 940.000000)">
                <mask id="mask-2" fill="white">
                    <use xlink:href="#path-1"></use>
                </mask>
                <g id="Mask">
                    <use fill="#FFFFFF" fill-rule="evenodd" xlink:href="#path-1"></use>
                    <rect stroke="#F5F5F5" stroke-width="0.5" x="0.25" y="0.25" width="27.5" height="19.5" rx="2"></rect>
                </g>
                <rect id="Rectangle-2" fill="#D9101C" mask="url(#mask-2)" x="0" y="0" width="28" height="6.66666667"></rect>
                <rect id="Rectangle-2" fill="#0F7811" mask="url(#mask-2)" x="0" y="13.3333333" width="28" height="6.66666667"></rect>
                <path d="M13.4213445,10.6666667 C13.3653492,10.3767148 13.3333333,10.1205867 13.3333333,10 C13.3333333,9.63181017 13.6318102,9.33333333 14,9.33333333 C14.3681898,9.33333333 14.6666667,9.63181017 14.6666667,10 C14.6666667,10.1205867 14.6346508,10.3767148 14.5786555,10.6666667 L15.3394814,10.6666667 C15.7042757,10.6666667 16,10.9625765 16,11.3333333 C16,11.7015232 15.6993499,12 15.3394814,12 L12.6605186,12 C12.2957243,12 12,11.7040901 12,11.3333333 C12,10.9651435 12.3006501,10.6666667 12.6605186,10.6666667 L13.4213445,10.6666667 Z M12.6666667,9.33333333 C12.2984768,9.33333333 12,9.0348565 12,8.66666667 C12,8.29847683 12.2984768,8 12.6666667,8 C13.0348565,8 13.3333333,8.29847683 13.3333333,8.66666667 C13.3333333,9.0348565 13.0348565,9.33333333 12.6666667,9.33333333 Z M15.3333333,9.33333333 C14.9651435,9.33333333 14.6666667,9.0348565 14.6666667,8.66666667 C14.6666667,8.29847683 14.9651435,8 15.3333333,8 C15.7015232,8 16,8.29847683 16,8.66666667 C16,9.0348565 15.7015232,9.33333333 15.3333333,9.33333333 Z M18,10.6666667 C17.6318102,10.6666667 17.3333333,10.3681898 17.3333333,10 C17.3333333,9.63181017 17.6318102,9.33333333 18,9.33333333 C18.3681898,9.33333333 18.6666667,9.63181017 18.6666667,10 C18.6666667,10.3681898 18.3681898,10.6666667 18,10.6666667 Z M10,10.6666667 C9.63181017,10.6666667 9.33333333,10.3681898 9.33333333,10 C9.33333333,9.63181017 9.63181017,9.33333333 10,9.33333333 C10.3681898,9.33333333 10.6666667,9.63181017 10.6666667,10 C10.6666667,10.3681898 10.3681898,10.6666667 10,10.6666667 Z" id="Oval-36" fill="#FAD14E" mask="url(#mask-2)"></path>
            </g>
        </g>
    </g>
</svg>