<?xml version="1.0" encoding="UTF-8"?>
<svg width="28px" height="20px" viewBox="0 0 28 20" version="1.1" xmlns="http://www.w3.org/2000/svg" xmlns:xlink="http://www.w3.org/1999/xlink">
    <!-- Generator: Sketch 44.1 (41455) - http://www.bohemiancoding.com/sketch -->
    <title>TO</title>
    <desc>Created with Sketch.</desc>
    <defs>
        <linearGradient x1="50%" y1="0%" x2="50%" y2="100%" id="linearGradient-1">
            <stop stop-color="#FFFFFF" offset="0%"></stop>
            <stop stop-color="#F0F0F0" offset="100%"></stop>
        </linearGradient>
        <rect id="path-2" x="0" y="0" width="28" height="20" rx="2"></rect>
        <linearGradient x1="50%" y1="0%" x2="50%" y2="100%" id="linearGradient-4">
            <stop stop-color="#DF0F1B" offset="0%"></stop>
            <stop stop-color="#C00711" offset="100%"></stop>
        </linearGradient>
    </defs>
    <g id="Page-1" stroke="none" stroke-width="1" fill="none" fill-rule="evenodd">
        <g id="Flags" transform="translate(-76.000000, -940.000000)">
            <g id="TO" transform="translate(76.000000, 940.000000)">
                <mask id="mask-3" fill="white">
                    <use xlink:href="#path-2"></use>
                </mask>
                <g id="Mask">
                    <use fill="#FFFFFF" fill-rule="evenodd" xlink:href="#path-2"></use>
                    <rect stroke="#F5F5F5" stroke-width="0.5" x="0.25" y="0.25" width="27.5" height="19.5" rx="2"></rect>
                </g>
                <path d="M0,0 L28,0 L28,20 L0,20 L0,0 Z M0,10.6666667 L16,10.6666667 L16,0 L0,0 L0,10.6666667 Z" id="Combined-Shape" fill="#E20F1B" mask="url(#mask-3)"></path>
                <path d="M9.33333333,4 L9.33333333,1.65685113 C9.33333333,1.48600038 9.18693686,1.33333333 9.00634766,1.33333333 L6.99365234,1.33333333 C6.81003825,1.33333333 6.66666667,1.47817719 6.66666667,1.65685113 L6.66666667,4 L4.3235178,4 C4.15266705,4 4,4.14639647 4,4.32698568 L4,6.33968099 C4,6.52329508 4.14484385,6.66666667 4.3235178,6.66666667 L6.66666667,6.66666667 L6.66666667,9.00981553 C6.66666667,9.18066629 6.81306314,9.33333333 6.99365234,9.33333333 L9.00634766,9.33333333 C9.18996175,9.33333333 9.33333333,9.18848948 9.33333333,9.00981553 L9.33333333,6.66666667 L11.6764822,6.66666667 C11.847333,6.66666667 12,6.52027019 12,6.33968099 L12,4.32698568 C12,4.14337158 11.8551561,4 11.6764822,4 L9.33333333,4 Z" id="Rectangle-1703" fill="url(#linearGradient-4)" mask="url(#mask-3)"></path>
            </g>
        </g>
    </g>
</svg>